#!OML:ASF F:\VICON\USERDATA\INSTALL\rory3\rory3.ASF
:FULLY-SPECIFIED
:DEGREES
99
root 0.251983 21.3383 13.096 24.2928 -24.579 -21.1353
lowerback -12.247 11.1801 18.3278
upperback -10.1871 12.9268 4.32798
thorax -1.68168 5.66318 -3.49969
lowerneck -7.81327 -2.19737 -4.51567
upperneck 30.3843 -2.98779 2.17217
head 11.2089 -1.63672 1.22535
rclavicle -2.88238e-014 -1.01579e-013
rhumerus -29.066 17.0784 -19.067
rradius 32.5836
rwrist -4.79896
rhand -10.7148 113.537
rfingers 7.12502
rthumb 15.2953 142.951
lclavicle -2.88238e-014 -1.01579e-013
lhumerus -51.9786 0.215754 -11.8766
lradius 29.5529
lwrist 20.0684
lhand -33.602 -26.884
lfingers 7.12502
lthumb -6.79535 2.98695
rfemur 6.64477 -7.39507 6.58565
rtibia 86.974
rfoot 43.7668 -17.4596
rtoes 28.2802
lfemur -45.8027 9.54993 3.19442
ltibia 24.4573
lfoot 29.7309 17.1192
ltoes -4.56589
100
root 0.230799 21.0922 13.5152 23.8648 -24.6958 -20.4633
lowerback -12.4564 11.0311 17.8425
upperback -10.1946 12.7313 4.20208
thorax -1.65891 5.58844 -3.40627
lowerneck -9.31801 -2.46272 -3.78865
upperneck 31.7008 -3.10825 0.926561
head 12.0095 -1.75644 0.604394
rclavicle -1.12363e-013 -7.2954e-014
rhumerus -30.9283 19.1045 -20.0137
rradius 32.2945
rwrist -4.07813
rhand -10.3276 113.189
rfingers 7.12502
rthumb 15.6682 142.575
lclavicle -1.12363e-013 -7.2954e-014
lhumerus -52.9733 -2.18016 -9.99357
lradius 29.3488
lwrist 20.0203
lhand -34.4813 -26.1774
lfingers 7.12502
lthumb -7.64416 3.6645
rfemur 5.23197 -8.05564 5.4345
rtibia 90.2999
rfoot 42.0605 -18.7384
rtoes 29.9522
lfemur -44.4488 9.2498 1.41831
ltibia 25.058
lfoot 29.6553 15.2837
ltoes -4.83843
101
root 0.210193 20.8139 13.9465 23.4402 -24.6537 -19.9305
lowerback -13.0792 10.956 17.6397
upperback -10.0075 12.4746 4.07176
thorax -1.16683 5.50802 -3.37002
lowerneck -7.96166 -2.12286 -4.3485
upperneck 30.5081 -2.864 2.01028
head 11.2763 -1.58171 1.15044
rclavicle 3.28492e-014 3.65764e-014
rhumerus -32.9708 20.8726 -21.1701
rradius 32.6068
rwrist -4.20254
rhand -9.94418 112.803
rfingers 7.12502
rthumb 16.0374 142.159
lclavicle 3.28492e-014 3.65764e-014
lhumerus -53.7032 -3.34989 -8.75063
lradius 28.7053
lwrist 19.2648
lhand -34.7341 -27.0211
lfingers 7.12502
lthumb -7.88812 2.81169
rfemur 4.15418 -8.71303 4.41537
rtibia 93.4191
rfoot 39.808 -19.6431
rtoes 31.0443
lfemur -43.326 9.30835 -0.414738
ltibia 26.1364
lfoot 29.2264 13.5623
ltoes -6.57295
102
root 0.182521 20.5149 14.3828 23.1923 -24.5706 -19.5018
lowerback -14.0106 10.9546 17.4506
upperback -9.67663 12.2243 3.91722
thorax -0.346448 5.45551 -3.29845
lowerneck -7.61885 -2.00218 -4.5481
upperneck 29.7509 -2.80191 2.53111
head 10.9221 -1.51297 1.38246
rclavicle 1.42032e-013 1.29806e-013
rhumerus -34.9226 22.1263 -22.4084
rradius 32.7188
rwrist -4.87079
rhand -10.0884 112.984
rfingers 7.12502
rthumb 15.8985 142.352
lclavicle 1.42032e-013 1.29806e-013
lhumerus -54.3527 -3.95845 -7.39682
lradius 28.1471
lwrist 18.7766
lhand -35.787 -27.3495
lfingers 7.12502
lthumb -8.90422 2.44262
rfemur 2.9795 -9.35698 3.57842
rtibia 96.4359
rfoot 37.3767 -19.7042
rtoes 30.7199
lfemur -42.5395 9.88074 -2.3827
ltibia 27.6057
lfoot 28.8644 11.3326
ltoes -8.86015
103
root 0.150503 20.2066 14.8001 22.9654 -24.367 -19.2358
lowerback -14.1121 10.8422 17.1935
upperback -9.77787 12.1012 3.8326
thorax -0.448298 5.39352 -3.28586
lowerneck -9.89656 -2.50004 -3.41954
upperneck 31.6041 -3.13352 0.642189
head 12.0779 -1.75692 0.422188
rclavicle 4.85532e-014 3.97569e-014
rhumerus -37.3361 23.4733 -23.7335
rradius 32.9644
rwrist -5.78972
rhand -10.3596 113.178
rfingers 7.12502
rthumb 15.6373 142.566
lclavicle 4.85532e-014 3.97569e-014
lhumerus -55.1208 -5.8461 -5.00381
lradius 28.0198
lwrist 19.361
lhand -36.3656 -28.3378
lfingers 7.12502
lthumb -9.46261 1.42975
rfemur 1.64278 -10.0615 3.09535
rtibia 99.516
rfoot 34.4483 -20.673
rtoes 31.1529
lfemur -41.9159 10.7965 -4.26889
ltibia 29.3702
lfoot 28.7735 8.24768
ltoes -11.2023
104
root 0.117495 19.8895 15.2013 22.646 -23.9753 -19.0748
lowerback -14.1849 10.7233 17.2106
upperback -9.67651 11.9212 3.70097
thorax -0.2955 5.31653 -3.45151
lowerneck -9.7078 -2.37553 -3.65731
upperneck 31.1051 -3.08392 1.25053
head 11.8512 -1.68518 0.702363
rclavicle 4.32357e-015 -2.88238e-014
rhumerus -39.663 23.8408 -24.9745
rradius 33.0942
rwrist -6.2907
rhand -10.6399 113.142
rfingers 7.12502
rthumb 15.3673 142.551
lclavicle 4.32357e-015 -2.88238e-014
lhumerus -55.9409 -7.63782 -2.02437
lradius 28.0465
lwrist 20.09
lhand -36.8348 -29.1839
lfingers 7.12502
lthumb -9.91526 0.562564
rfemur 0.47597 -10.7539 2.94272
rtibia 102.523
rfoot 30.3691 -23.6851
rtoes 34.4878
lfemur -41.2539 11.7233 -5.93576
ltibia 31.2679
lfoot 28.4111 5.4616
ltoes -13.6592
105
root 0.083583 19.557 15.5922 22.2387 -23.5195 -18.6462
lowerback -14.2264 10.518 16.9367
upperback -9.50455 11.6702 3.49272
thorax -0.118116 5.22128 -3.57129
lowerneck -10.2259 -2.41691 -3.71725
upperneck 30.9129 -3.20455 1.57221
head 11.8916 -1.70189 0.811059
rclavicle 5.83433e-014 1.07145e-013
rhumerus -41.7835 23.723 -26.1463
rradius 33.0571
rwrist -6.32839
rhand -10.7338 112.95
rfingers 7.12502
rthumb 15.2769 142.366
lclavicle 5.83433e-014 1.07145e-013
lhumerus -56.7195 -8.88488 0.88107
lradius 28.1809
lwrist 20.7157
lhand -39.3757 -22.3075
lfingers 7.12502
lthumb -12.3659 7.30676
rfemur -0.734962 -11.5532 2.53172
rtibia 105.598
rfoot 27.2888 -23.4943
rtoes 35.2679
lfemur -40.6387 12.5121 -7.74409
ltibia 33.198
lfoot 27.7871 3.35553
ltoes -15.4915
106
root 0.0506109 19.2009 15.9715 21.7743 -23.0144 -17.9105
lowerback -14.3128 10.249 16.3482
upperback -9.27572 11.3641 3.22579
thorax 0.103285 5.11551 -3.59703
lowerneck -10.977 -2.54232 -3.64557
upperneck 30.6829 -3.38229 1.61682
head 11.9601 -1.76114 0.782119
rclavicle 7.40597e-014 1.56543e-014
rhumerus -43.9734 23.6202 -27.358
rradius 33.2245
rwrist -6.46906
rhand -10.5988 112.69
rfingers 7.12502
rthumb 15.407 142.095
lclavicle 7.40597e-014 1.56543e-014
lhumerus -57.2672 -8.98136 2.78822
lradius 28.2575
lwrist 21.0098
lhand -34.8037 -30.934
lfingers 7.12502
lthumb -7.95529 -1.10374
rfemur -2.16298 -12.5082 1.64908
rtibia 108.856
rfoot 22.9078 -23.6663
rtoes 37.5487
lfemur -40.1651 13.1855 -9.8045
ltibia 35.2544
lfoot 26.0167 1.53004
ltoes -15.508
107
root 0.0174155 18.8202 16.338 21.3246 -22.5351 -17.0983
lowerback -14.3707 9.97956 15.7485
upperback -9.04947 11.0686 2.89852
thorax 0.318856 5.01219 -3.67964
lowerneck -11.3218 -2.64449 -3.73434
upperneck 30.1966 -3.56569 1.88293
head 11.8508 -1.81641 0.867501
rclavicle -1.90026e-014 -5.37216e-014
rhumerus -46.2715 23.4911 -28.7236
rradius 33.5143
rwrist -6.71995
rhand -10.3423 112.496
rfingers 7.12502
rthumb 15.654 141.882
lclavicle -1.90026e-014 -5.37216e-014
lhumerus -57.5967 -8.25896 3.76467
lradius 28.1381
lwrist 20.9475
lhand -31.6642 -36.1261
lfingers 7.12502
lthumb -4.9245 -6.20337
rfemur -3.72192 -13.3583 0.613338
rtibia 112.141
rfoot 18.5125 -23.2327
rtoes 37.1383
lfemur -39.75 13.7021 -11.8404
ltibia 37.5867
lfoot 19.8429 0.952845
ltoes -26.5697
108
root -0.0196793 18.4223 16.7008 21.0231 -21.9658 -16.4702
lowerback -14.419 9.69287 15.3191
upperback -8.91384 10.7399 2.61004
thorax 0.437271 4.87549 -3.82266
lowerneck -9.09892 -2.13889 -5.12542
upperneck 27.3864 -3.2892 4.49012
head 10.3868 -1.54881 2.09896
rclavicle 2.39287e-014 3.16316e-014
rhumerus -48.5169 23.2216 -30.0914
rradius 33.6756
rwrist -6.83796
rhand -10.4344 112.346
rfingers 7.12502
rthumb 15.5652 141.739
lclavicle 2.39287e-014 3.16316e-014
lhumerus -58.5522 -8.95116 6.69704
lradius 28.9448
lwrist 20.2648
lhand -35.9421 -27.3194
lfingers 7.12502
lthumb -9.05395 2.46625
rfemur -5.41662 -14.0316 0.0394326
rtibia 115.27
rfoot 14.4443 -22.2888
rtoes 35.6706
lfemur -39.3987 14.09 -13.559
ltibia 40.2583
lfoot 11.1271 1.43816
ltoes -32.7248
109
root -0.0627042 18.0336 17.0701 20.9036 -21.2176 -16.0226
lowerback -14.5197 9.3512 15.03
upperback -8.89276 10.3217 2.33887
thorax 0.454516 4.67793 -4.04076
lowerneck -8.32707 -1.92487 -5.39991
upperneck 25.8054 -3.18703 5.56227
head 9.67459 -1.42153 2.52079
rclavicle 1.49958e-013 1.03368e-013
rhumerus -50.6645 22.9154 -31.5855
rradius 33.6352
rwrist -6.5687
rhand -10.5663 112.333
rfingers 7.12502
rthumb 15.4383 141.736
lclavicle 1.49958e-013 1.03368e-013
lhumerus -58.7522 -7.41182 6.22406
lradius 28.0088
lwrist 20.3681
lhand -30.6115 -39.7969
lfingers 7.12502
lthumb -3.90797 -9.85295
rfemur -7.47251 -14.5619 0.291228
rtibia 118.123
rfoot 11.075 -21.2563
rtoes 33.3582
lfemur -39.2178 14.477 -14.9812
ltibia 43.1618
lfoot 2.88273 2.93515
ltoes -30.0647
110
root -0.108007 17.6797 17.442 20.8211 -20.4309 -15.5515
lowerback -14.3768 8.9438 14.671
upperback -8.97682 9.88681 2.03571
thorax 0.221503 4.45594 -4.30209
lowerneck -8.26603 -1.91958 -5.02379
upperneck 24.8386 -3.27243 5.81488
head 9.32214 -1.40265 2.52021
rclavicle -8.18247e-014 -4.67144e-014
rhumerus -53.1319 22.8892 -33.5991
rradius 34.0513
rwrist -6.31994
rhand -10.2675 112.583
rfingers 7.12502
rthumb 15.726 141.964
lclavicle -8.18247e-014 -4.67144e-014
lhumerus -59.8688 -8.08109 9.65021
lradius 28.9738
lwrist 18.1189
lhand -36.5834 -28.8595
lfingers 7.12502
lthumb -9.67271 0.898435
rfemur -10.0137 -15.0483 1.02906
rtibia 120.806
rfoot 8.24474 -20.7739
rtoes 31.7865
lfemur -39.2123 14.4177 -15.9952
ltibia 46.0627
lfoot -4.11686 5.50153
ltoes -23.5061
111
root -0.153766 17.3506 17.8107 20.8054 -19.7233 -14.9809
lowerback -14.3221 8.56325 14.2326
upperback -8.98456 9.47026 1.6797
thorax 0.120474 4.25533 -4.54978
lowerneck -8.29391 -1.92979 -4.67391
upperneck 23.8303 -3.37126 6.10727
head 8.97992 -1.39167 2.53551
rclavicle -6.41081e-015 -2.3059e-014
rhumerus -55.793 22.7975 -36.0459
rradius 34.8516
rwrist -6.56296
rhand -10.1072 113.009
rfingers 7.12502
rthumb 15.8804 142.378
lclavicle -6.41081e-015 -2.3059e-014
lhumerus -60.4729 -7.45012 11.5555
lradius 29.4394
lwrist 18.3392
lhand -35.6902 -30.7212
lfingers 7.12502
lthumb -8.81088 -0.925129
rfemur -12.7516 -15.0077 2.23785
rtibia 122.962
rfoot 5.42826 -20.7296
rtoes 30.9865
lfemur -39.2443 13.8555 -16.7163
ltibia 48.5578
lfoot -10.9432 7.05309
ltoes -11.5792
